# xmcd CD database file
#
# Track frame offsets:
#	182
#	11690
#	24442
#	37340
#	49767
#	64017
#	77370
#	92422
#	106707
#	122482
#	135782
#	149710
#	161980
#	175752
#	187167
#	199697
#	209082
#	221492
#	233807
#	244070
#	256912
#
# Disc length: 3587 seconds
#
# Revision: 0
# Processed by: cddbd v1.4PL0 Copyright (c) Steve Scherf et al.
# Submitted via: CDex 1.40Beta8
#
DISCID=250e0115
DTITLE=Jimmy Rogers - That's All Right
DYEAR=1900
DGENRE=Blues
TTITLE0=I'm In Love
TTITLE1=That'a All Right
TTITLE2=Ludella
TTITLE3=Goin' Away Baby
TTITLE4=Today, Today Blues
TTITLE5=The World Is A Triangle
TTITLE6=Hard Working Man
TTITLE7=Back Door Friend
TTITLE8=Mistreated Baby
TTITLE9=Left Me With A Broken Heart
TTITLE10=Blues All Day Long (Leave Me Alone)
TTITLE11=Chicago Bound
TTITLE12=Sloopy Drunk
TTITLE13=You're The One
TTITLE14=Walking By Myself
TTITLE15=If It Ain't Me
TTITLE16=I Can't Believe
TTITLE17=What Have I Done
TTITLE18=Don't Turn Me Down
TTITLE19=Rock This House
TTITLE20=You Don't Know
EXTD=ID3G: 0
EXTT0=
EXTT1=
EXTT2=
EXTT3=
EXTT4=
EXTT5=
EXTT6=
EXTT7=
EXTT8=
EXTT9=
EXTT10=
EXTT11=
EXTT12=
EXTT13=
EXTT14=
EXTT15=
EXTT16=
EXTT17=
EXTT18=
EXTT19=
EXTT20=
PLAYORDER=
